<svg xmlns="http://www.w3.org/2000/svg" viewBox="0 0 500 500" fill="none">
  <rect width="500" height="500" rx="50" fill="#F3F4F6" />
  <path
    d="M250 150C193.89 150 150 193.89 150 250C150 306.11 193.89 350 250 350C306.11 350 350 306.11 350 250C350 193.89 306.11 150 250 150ZM250 330C205.51 330 170 294.49 170 250C170 205.51 205.51 170 250 170C294.49 170 330 205.51 330 250C330 294.49 294.49 330 250 330Z"
    fill="#D1D5DB"
  />
  <path
    d="M250 310C281.14 310 310 281.14 310 250C310 218.86 281.14 190 250 190C218.86 190 190 218.86 190 250C190 281.14 218.86 310 250 310ZM250 270C263.81 270 275 258.81 275 245C275 231.19 263.81 220 250 220C236.19 220 225 231.19 225 245C225 258.81 236.19 270 250 270Z"
    fill="#6B7280"
  />
  <path
    d="M292.32 365C277.39 378.33 258.45 385 238 385C217.55 385 198.61 378.33 183.68 365"
    stroke="#6B7280"
    strokeWidth="15"
    strokeLinecap="round"
  />
</svg>